<svg width="67" height="75" viewBox="0 0 67 75" fill="none" xmlns="http://www.w3.org/2000/svg">
<path d="M5.29959 74.085L5.2985 74.0856C4.81121 74.3634 4.2643 74.5 3.72222 74.5C3.16368 74.5 2.60288 74.3513 2.09818 74.0581C1.10643 73.4734 0.5 72.4084 0.5 71.25V3.75014C0.5 2.5912 1.10695 1.52584 2.09947 0.941263C3.08533 0.363723 4.30197 0.351088 5.29984 0.915288C5.29989 0.915317 5.29994 0.915346 5.3 0.915376L64.8537 34.6643C64.8539 34.6644 64.8541 34.6645 64.8543 34.6646C65.8676 35.2436 66.5 36.3232 66.5 37.5001C66.5 38.677 65.8676 39.7566 64.8543 40.3356C64.8541 40.3357 64.8539 40.3358 64.8537 40.3359L5.29959 74.085Z" stroke="white" stroke-width="2"/>
<path d="M22.7826 30.2734L23.2212 31.075L23.6599 30.2734C24.1756 29.3309 25.0436 28.0514 26.3337 27.0536C27.6708 26.0195 29.1778 25.5 30.8249 25.5C35.4241 25.5 38.9425 29.2555 38.9425 34.3471C38.9425 37.0717 37.8556 39.3864 35.872 41.78C33.8757 44.1888 31.0096 46.6335 27.4999 49.6244L27.8242 50.0049L27.4999 49.6244C26.3112 50.6374 24.9622 51.787 23.5594 53.0138L23.5593 53.0139C23.4661 53.0954 23.3463 53.1406 23.2212 53.1406C23.0962 53.1406 22.9764 53.0954 22.8833 53.0139L22.883 53.0137C21.4811 51.7877 20.1325 50.6384 18.9449 49.6263L18.9433 49.625L18.619 50.0055L18.9433 49.625C15.4333 46.6338 12.567 44.189 10.5706 41.7801C8.5869 39.3864 7.5 37.0717 7.5 34.3471C7.5 29.2555 11.0184 25.5 15.6175 25.5C17.2647 25.5 18.7717 26.0195 20.1088 27.0536L20.3947 26.6839L20.1088 27.0536C21.3988 28.0514 22.2669 29.3309 22.7826 30.2734Z" stroke="white" stroke-width="2"/>
</svg>
