<svg width="76" height="68" viewBox="0 0 76 68" fill="none" xmlns="http://www.w3.org/2000/svg">
<path d="M1.41501 5.79959L1.41439 5.7985C1.13663 5.31121 1 4.7643 1 4.22222C1 3.66367 1.14869 3.10288 1.44187 2.59818C2.02662 1.60642 3.09155 0.999997 4.24999 0.999997L71.7499 1C72.9088 1 73.9742 1.60695 74.5587 2.59947C75.1363 3.58533 75.1489 4.80197 74.5847 5.79984C74.5847 5.79989 74.5847 5.79994 74.5846 5.8L40.8357 65.3537C40.8356 65.3539 40.8355 65.3541 40.8354 65.3543C40.2564 66.3676 39.1768 67 37.9999 67C36.823 67 35.7434 66.3676 35.1644 65.3543C35.1643 65.3541 35.1642 65.3539 35.1641 65.3537L1.41501 5.79959Z" stroke="orange" stroke-width="2"/>
<path d="M47.7528 14.2472C46.4003 12.8946 44.8212 11.8379 43.0592 11.1065C41.2969 10.375 39.4337 10.0027 37.521 10C37.5139 10 37.5071 10 37.5 10C33.6268 10 29.4325 11.6992 26.6405 14.8908C24.2928 17.537 23 20.9496 23 24.5C23 27.046 23.662 29.5355 24.9169 31.7166L23.8523 35.9686C23.7014 36.5724 23.868 37.2021 24.3001 37.655C24.8751 38.2539 25.5477 38.2539 26.017 38.1446L30.5558 37.2362C32.6676 38.3907 35.0633 39 37.5 39C41.0511 39 44.4637 37.707 47.109 35.3597C50.6824 31.8832 52 28.3737 52 24.5C52 20.6272 50.4917 16.9858 47.7528 14.2472ZM45.9815 34.0884C43.6471 36.16 40.6351 37.3008 37.5 37.3008C35.2797 37.3008 33.0995 36.7291 31.1947 35.6471C31.0293 35.5533 30.8436 35.5049 30.656 35.5049C30.585 35.5049 30.5135 35.5117 30.4429 35.5259L25.669 36.4813L25.636 36.4886C25.5913 36.4994 25.5639 36.5014 25.5502 36.5014C25.5448 36.4972 25.5375 36.4903 25.5278 36.4802C25.5019 36.4532 25.4917 36.416 25.5006 36.3813L26.6257 31.8874C26.6962 31.6051 26.6527 31.3121 26.5029 31.0623C25.3229 29.0934 24.6992 26.8243 24.6992 24.5C24.6992 21.3655 25.84 18.3534 27.9118 16.0183C30.5544 13.0515 34.0805 11.6992 37.5 11.6992H37.5186C40.9305 11.7041 44.1382 13.0356 46.5514 15.4486C48.9693 17.8664 50.3008 21.081 50.3008 24.5C50.3008 27.9197 49.1536 31.1909 45.9815 34.0884Z" stroke="orange" fill="orange" stroke-width="2"/>
</svg>
