<svg width="67" height="75" viewBox="0 0 67 75" fill="none" xmlns="http://www.w3.org/2000/svg">
<path d="M61.7004 74.085L61.7015 74.0856C62.1888 74.3634 62.7357 74.5 63.2778 74.5C63.8363 74.5 64.3971 74.3513 64.9018 74.0581C65.8936 73.4734 66.5 72.4084 66.5 71.25V3.75014C66.5 2.5912 65.893 1.52584 64.9005 0.941263C63.9147 0.363723 62.698 0.351088 61.7002 0.915288C61.7001 0.915317 61.7001 0.915346 61.7 0.915376L2.14629 34.6643C2.14611 34.6644 2.14593 34.6645 2.14574 34.6646C1.13236 35.2436 0.5 36.3232 0.5 37.5001C0.5 38.677 1.13235 39.7566 2.14574 40.3356C2.14593 40.3357 2.14611 40.3358 2.14629 40.3359L61.7004 74.085Z" stroke="orange" stroke-width="2"/>
<line x1="1" y1="-1" x2="31.01" y2="-1" transform="matrix(0.717581 0.696475 -0.717581 0.696475 31 29)" stroke="orange" stroke-width="2" stroke-linecap="round"/>
<line x1="1" y1="-1" x2="31.01" y2="-1" transform="matrix(-0.717581 0.696475 0.717581 0.696475 56.2666 29)" stroke="orange" stroke-width="2" stroke-linecap="round"/>
</svg>
